#!OML:ASF H:\Male1\Project 1\Capture day 1\Session 1\Male1.ASF
:FULLY-SPECIFIED
:DEGREES
252
root 11.9301 14.5896 1.44245 -342.631 -103.925 341.462
lowerback 6.76543 0.27026 -4.37419
upperback 4.99058 -0.0570928 -1.7916
thorax 1.36259 -0.198709 0.606578
lowerneck -8.33277 2.13088 7.28885
upperneck 3.03291 2.06416 -0.764888
head 2.52922 1.08425 -1.42531
rclavicle 1.98288e-014 2.56432e-014
rhumerus -44.9085 39.8034 -92.906
rradius 105.482
rwrist -20.2409
rhand -26.3586 12.1617
rfingers 7.12502
rthumb 0.199354 -17.8179
lclavicle 1.98288e-014 2.56432e-014
lhumerus -39.9505 -0.226042 82.2948
lradius 30.6586
lwrist -2.6027
lhand -17.7651 7.38036
lfingers 7.12502
lthumb 8.49702 37.1894
rfemur -42.0577 -11.8377 28.0768
rtibia 51.4719
rfoot -30.9945 -25.1013
rtoes -15.9638
lfemur 6.44431 -0.846249 -35.3757
ltibia 25.7831
lfoot -38.7438 27.0372
ltoes 0.464665
253
root 11.7924 14.553 1.42428 -343.094 -104.892 341.7
lowerback 6.77991 0.094728 -4.37778
upperback 4.97565 -0.291152 -1.63876
thorax 1.34993 -0.317152 0.778907
lowerneck -8.68191 2.54074 7.76118
upperneck 3.40502 2.56761 -1.44919
head 2.77079 1.32899 -1.71154
rclavicle 1.61513e-015 1.68967e-014
rhumerus -45.1237 39.4047 -92.6426
rradius 106.685
rwrist -19.7795
rhand -26.3237 12.904
rfingers 7.12502
rthumb 0.233153 -17.0756
lclavicle 1.61513e-015 1.68967e-014
lhumerus -41.1302 -0.658238 82.6771
lradius 32.3937
lwrist -1.43432
lhand -17.2411 8.52405
lfingers 7.12502
lthumb 9.00271 38.312
rfemur -41.6551 -11.6711 27.9093
rtibia 50.4201
rfoot -32.3734 -25.9133
rtoes -13.5691
lfemur 7.39695 0.145413 -35.6499
ltibia 25.3865
lfoot -38.9532 26.7995
ltoes 0.979277
254
root 11.6496 14.5241 1.40112 -343.737 -105.834 342.338
lowerback 6.84121 -0.0786347 -4.2712
upperback 4.70241 -0.51402 -1.42252
thorax 1.04346 -0.413453 0.957335
lowerneck -8.72136 2.91292 8.45815
upperneck 3.73658 3.0485 -2.46055
head 2.9638 1.55449 -2.15424
rclavicle 3.23087e-014 -1.30452e-014
rhumerus -46.006 39.1434 -92.7759
rradius 108.199
rwrist -19.8037
rhand -26.753 13.4653
rfingers 7.12502
rthumb -0.181527 -16.5144
lclavicle 3.23087e-014 -1.30452e-014
lhumerus -42.7514 -1.28367 83.1514
lradius 34.2116
lwrist -0.297155
lhand -17.0883 9.01306
lfingers 7.12502
lthumb 9.15017 38.7946
rfemur -41.3679 -11.2794 27.8267
rtibia 49.5119
rfoot -33.9931 -26.2422
rtoes -9.81328
lfemur 8.15038 0.917717 -35.8201
ltibia 24.9787
lfoot -39.0304 26.7441
ltoes 0.856155
255
root 11.4986 14.5006 1.37501 -345.191 -106.786 343.833
lowerback 6.70464 -0.254974 -3.94835
upperback 4.55461 -0.714854 -1.05335
thorax 0.975283 -0.502588 1.16844
lowerneck -8.57371 3.22072 9.0747
upperneck 3.69146 3.48249 -3.61424
head 3.0024 1.74303 -2.64
rclavicle -2.21396e-014 -8.44835e-015
rhumerus -46.433 38.9353 -92.4042
rradius 109.817
rwrist -19.6715
rhand -26.5867 13.5281
rfingers 7.12502
rthumb -0.0209246 -16.4516
lclavicle -2.21396e-014 -8.44835e-015
lhumerus -44.2002 -1.98082 83.7662
lradius 35.9555
lwrist 0.519089
lhand -17.2992 8.79315
lfingers 7.12502
lthumb 8.94659 38.5835
rfemur -40.9602 -10.6965 27.9781
rtibia 48.7144
rfoot -35.2978 -26.9293
rtoes -7.22522
lfemur 8.86355 1.6693 -35.7259
ltibia 24.6886
lfoot -39.0125 26.7791
ltoes -0.15102
256
root 11.3382 14.4729 1.34719 -345.825 -107.873 344.448
lowerback 6.52251 -0.446097 -3.82388
upperback 4.45967 -0.947405 -0.741497
thorax 0.99256 -0.615548 1.43112
lowerneck -8.5653 3.64411 9.65749
upperneck 3.95826 4.08162 -5.04433
head 2.86486 1.99022 -2.87374
rclavicle 2.75814e-014 -1.15295e-014
rhumerus -46.5132 38.7659 -91.6889
rradius 111.344
rwrist -19.4589
rhand -25.6564 13.6734
rfingers 7.12502
rthumb 0.877626 -16.3046
lclavicle 2.75814e-014 -1.15295e-014
lhumerus -45.6683 -2.57993 84.3131
lradius 37.8082
lwrist 1.11134
lhand -17.4441 8.90155
lfingers 7.12502
lthumb 8.80679 38.6978
rfemur -40.4015 -9.96765 27.7854
rtibia 47.9898
rfoot -36.7303 -27.4535
rtoes -4.16332
lfemur 9.45849 2.54191 -35.8625
ltibia 24.8169
lfoot -38.8576 26.6956
ltoes -1.61148
257
root 11.1693 14.4409 1.31734 -346.4 -108.942 344.925
lowerback 6.41842 -0.657012 -3.60477
upperback 4.36086 -1.20763 -0.469297
thorax 0.962707 -0.73975 1.60183
lowerneck -8.68316 4.20438 10.3284
upperneck 4.19456 4.83507 -6.28015
head 3.05892 2.3305 -3.3115
rclavicle 2.79292e-014 9.93923e-015
rhumerus -46.676 38.6102 -91.0686
rradius 112.881
rwrist -19.3906
rhand -24.6838 13.7393
rfingers 7.12502
rthumb 1.81691 -16.2327
lclavicle 2.79292e-014 9.93923e-015
lhumerus -47.2171 -3.17515 84.7915
lradius 39.5584
lwrist 1.44777
lhand -17.5409 8.99062
lfingers 7.12502
lthumb 8.7134 38.7908
rfemur -39.6112 -9.18361 27.4944
rtibia 47.357
rfoot -37.9429 -27.5799
rtoes -1.46456
lfemur 9.90418 3.49406 -35.9407
ltibia 25.5361
lfoot -38.6452 26.3052
ltoes -3.83794
258
root 10.9954 14.4101 1.28381 -348.697 -110.009 347.177
lowerback 6.34057 -0.82199 -2.71446
upperback 4.27588 -1.3749 -0.0414225
thorax 0.914143 -0.805767 1.55178
lowerneck -8.49499 4.63077 10.9064
upperneck 4.34972 5.4558 -7.52269
head 3.17983 2.60552 -3.74964
rclavicle 2.38542e-014 6.75868e-015
rhumerus -46.9051 38.3772 -90.4645
rradius 114.426
rwrist -19.328
rhand -23.524 13.838
rfingers 7.12502
rthumb 2.93703 -16.1215
lclavicle 2.38542e-014 6.75868e-015
lhumerus -48.7993 -3.82459 85.3027
lradius 41.0346
lwrist 1.43676
lhand -17.6138 8.16134
lfingers 7.12502
lthumb 8.64307 37.9644
rfemur -38.5807 -8.14892 27.8408
rtibia 46.7448
rfoot -38.0143 -27.8306
rtoes -0.503162
lfemur 9.96341 4.65564 -35.2563
ltibia 27.1693
lfoot -38.5278 25.4852
ltoes -6.48714
259
root 10.8208 14.393 1.24911 -351.241 -111.366 349.698
lowerback 6.28973 -0.909205 -1.7406
upperback 4.18636 -1.43963 0.453267
thorax 0.840057 -0.821705 1.51821
lowerneck -8.21855 5.14941 11.6891
upperneck 4.32698 6.19797 -8.96135
head 3.27058 2.93613 -4.27637
rclavicle -3.07122e-014 5.56597e-015
rhumerus -47.0646 38.3446 -89.7959
rradius 115.827
rwrist -19.0248
rhand -22.3496 14.2013
rfingers 7.12502
rthumb 4.07115 -15.7395
lclavicle -3.07122e-014 5.56597e-015
lhumerus -50.4072 -4.23242 85.7703
lradius 42.2027
lwrist 1.40052
lhand -17.4281 6.94946
lfingers 7.12502
lthumb 8.82224 36.7451
rfemur -37.3844 -7.68621 28.755
rtibia 46.269
rfoot -36.5274 -28.1539
rtoes -3.51156
lfemur 9.39203 6.22424 -34.2957
ltibia 29.9051
lfoot -37.8554 24.6735
ltoes -9.46415
260
root 10.6452 14.385 1.21201 -353.547 -112.99 352.019
lowerback 6.34756 -0.945237 -0.777227
upperback 4.07252 -1.4414 0.9517
thorax 0.679361 -0.808645 1.4934
lowerneck -7.94223 5.7228 12.5904
upperneck 4.38016 7.01571 -10.4596
head 3.41745 3.30475 -4.83556
rclavicle 6.49032e-014 -1.66979e-014
rhumerus -47.1723 38.5413 -89.2425
rradius 117.074
rwrist -18.2945
rhand -21.7061 14.7185
rfingers 7.12502
rthumb 4.69255 -15.2095
lclavicle 6.49032e-014 -1.66979e-014
lhumerus -51.8968 -4.39886 86.1295
lradius 42.8645
lwrist 1.61735
lhand -17.5726 6.00773
lfingers 7.12502
lthumb 8.68282 35.8092
rfemur -36.2368 -7.14187 29.6321
rtibia 45.8427
rfoot -35.2611 -28.0422
rtoes 0.789121
lfemur 7.96684 8.43424 -33.0358
ltibia 34.0683
lfoot -36.0769 23.8347
ltoes -13.2548
261
root 10.4725 14.3772 1.17756 -356.122 -114.884 354.543
lowerback 6.68954 -0.888657 0.464654
upperback 4.01699 -1.31082 1.47825
thorax 0.414347 -0.731742 1.33889
lowerneck -7.64701 6.21824 13.2478
upperneck 4.46794 7.74424 -11.6434
head 3.55809 3.63811 -5.26393
rclavicle 1.35174e-014 -1.59028e-015
rhumerus -47.0859 38.8253 -88.6611
rradius 118.195
rwrist -17.5876
rhand -21.6339 15.131
rfingers 7.12502
rthumb 4.76226 -14.7955
lclavicle 1.35174e-014 -1.59028e-015
lhumerus -53.1865 -4.47881 86.4764
lradius 43.0909
lwrist 2.06926
lhand -18.6069 5.24778
lfingers 7.12502
lthumb 7.68461 35.0882
rfemur -35.07 -6.28022 30.5717
rtibia 45.5516
rfoot -34.3551 -27.1933
rtoes 3.41643
lfemur 6.02499 11.2005 -31.3222
ltibia 39.542
lfoot -33.4903 22.177
ltoes -14.9548
262
root 10.304 14.3825 1.14878 -358.093 -117.041 356.308
lowerback 7.31635 -0.723934 1.57627
upperback 4.02832 -1.03624 1.95402
thorax 0.0662497 -0.592465 1.19903
lowerneck -7.33089 6.69584 13.8544
upperneck 4.52412 8.45857 -12.7888
head 3.69458 3.96571 -5.67382
rclavicle 5.74488e-014 -4.13472e-014
rhumerus -46.5114 39.1928 -87.7665
rradius 119.129
rwrist -17.3275
rhand -21.7841 15.1711
rfingers 7.12502
rthumb 4.61722 -14.7586
lclavicle 5.74488e-014 -4.13472e-014
lhumerus -54.2894 -4.45944 86.8429
lradius 43.0355
lwrist 2.49267
lhand -19.8714 4.61905
lfingers 7.12502
lthumb 6.46398 34.5004
rfemur -33.7627 -5.67137 31.295
rtibia 45.223
rfoot -32.9854 -25.3311
rtoes 6.81353
lfemur 3.32127 14.2475 -29.5729
ltibia 46.3251
lfoot -29.5982 20.5797
ltoes -15.8906
263
root 10.1424 14.3917 1.12677 -359.263 -119.312 357.205
lowerback 8.0053 -0.497617 2.45526
upperback 4.14403 -0.686813 2.29837
thorax -0.199692 -0.423181 1.0445
lowerneck -7.19398 7.16092 14.5472
upperneck 4.53409 9.11898 -13.8108
head 3.85054 4.2674 -6.05794
rclavicle 3.57812e-014 3.18055e-015
rhumerus -45.1517 39.5895 -86.5377
rradius 119.812
rwrist -17.2998
rhand -21.6017 14.9758
rfingers 7.12502
rthumb 4.79336 -14.95
lclavicle 3.57812e-014 3.18055e-015
lhumerus -55.0823 -4.44694 87.1206
lradius 42.7196
lwrist 2.66842
lhand -20.7926 4.14773
lfingers 7.12502
lthumb 5.57457 34.0544
rfemur -32.4221 -5.52427 31.7743
rtibia 44.7832
rfoot -31.6097 -24.8649
rtoes 3.34105
lfemur -0.203416 16.687 -28.3505
ltibia 54.0532
lfoot -22.2338 19.7768
ltoes -21.2372
264
root 9.97856 14.4221 1.11187 -360.124 -121.4 357.852
lowerback 8.73191 -0.360791 3.30716
upperback 4.24009 -0.44492 2.64091
thorax -0.498855 -0.311543 0.908572
lowerneck -7.04772 7.58861 15.1578
upperneck 4.68841 9.74994 -14.7461
head 4.0473 4.5562 -6.40249
rclavicle -7.43455e-014 4.29375e-014
rhumerus -43.4717 40.2261 -85.076
rradius 120.537
rwrist -17.247
rhand -21.0473 14.603
rfingers 7.12502
rthumb 5.3287 -15.31
lclavicle -7.43455e-014 4.29375e-014
lhumerus -55.8863 -4.32065 87.4193
lradius 42.3503
lwrist 2.56559
lhand -21.4566 3.73648
lfingers 7.12502
lthumb 4.93348 33.659
rfemur -30.9901 -5.68788 32.1044
rtibia 44.1101
rfoot -29.8506 -24.1942
rtoes -0.0995509
lfemur -4.42537 18.6894 -27.2169
ltibia 62.4283
lfoot -17.5392 18.4778
ltoes -22.3095
265
root 9.8382 14.4528 1.10872 -361.551 -123.417 359.312
lowerback 9.78273 -0.239494 4.59026
upperback 4.24962 -0.156033 3.15323
thorax -1.05568 -0.185496 0.703173
lowerneck -6.7321 8.02848 15.7028
upperneck 4.55197 10.3972 -15.5598
head 4.13176 4.86497 -6.70107
rclavicle -4.77083e-015 -3.18055e-014
rhumerus -41.5281 40.9406 -83.2188
rradius 121.469
rwrist -17.1134
rhand -20.4666 14.3511
rfingers 7.12502
rthumb 5.88932 -15.547
lclavicle -4.77083e-015 -3.18055e-014
lhumerus -56.6968 -4.38838 87.8999
lradius 42.0333
lwrist 2.33163
lhand -21.7583 3.52565
lfingers 7.12502
lthumb 4.64211 33.4548
rfemur -29.6842 -5.47285 32.9005
rtibia 43.2747
rfoot -28.6196 -23.2335
rtoes -1.47009
lfemur -9.2854 19.8454 -25.9706
ltibia 71.0417
lfoot -17.0786 15.323
ltoes -26.8021
266
root 9.68869 14.496 1.11411 -362.766 -125.504 360.37
lowerback 10.8858 -0.0818323 5.89282
upperback 4.42215 0.193661 3.59016
thorax -1.4561 -0.037005 0.39812
lowerneck -6.34532 8.36997 16.4345
upperneck 4.23339 10.909 -16.6309
head 4.16506 5.10601 -7.1316
rclavicle -6.24184e-014 1.11319e-014
rhumerus -39.0856 41.6589 -80.9062
rradius 122.424
rwrist -16.792
rhand -20.2195 14.4379
rfingers 7.12502
rthumb 6.12795 -15.4535
lclavicle -6.24184e-014 1.11319e-014
lhumerus -57.4064 -4.74042 88.5956
lradius 41.8243
lwrist 2.14013
lhand -21.8109 3.47854
lfingers 7.12502
lthumb 4.59137 33.4088
rfemur -28.0822 -5.36558 33.4307
rtibia 42.2752
rfoot -27.4224 -22.1602
rtoes -3.49199
lfemur -14.1829 20.5704 -25.1813
ltibia 79.4598
lfoot -16.9036 13.0284
ltoes -21.6681
